<?xml version="1.0" standalone="no"?>
<!DOCTYPE svg PUBLIC "-//W3C//DTD SVG 20010904//EN"
 "http://www.w3.org/TR/2001/REC-SVG-20010904/DTD/svg10.dtd">
<svg version="1.0" xmlns="http://www.w3.org/2000/svg"
 width="1060.000000pt" height="1060.000000pt" viewBox="0 0 1060.000000 1060.000000"
 preserveAspectRatio="xMidYMid meet">
<metadata>
Created by potrace 1.14, written by Peter Selinger 2001-2017
</metadata>
<g transform="translate(0.000000,1060.000000) scale(0.100000,-0.100000)"
fill="#000000" stroke="none">
<path d="M5496 6969 c-36 -22 -46 -37 -46 -71 0 -37 18 -74 44 -86 28 -15 121
-67 231 -132 50 -29 110 -64 135 -78 25 -14 57 -33 72 -43 14 -11 28 -19 31
-19 3 0 86 -47 184 -104 179 -103 1062 -614 1118 -646 17 -9 239 -138 495
-285 273 -158 474 -268 487 -267 39 3 47 7 66 29 25 31 29 60 13 97 -10 24
-36 44 -112 87 -55 32 -187 108 -294 170 -290 167 -291 168 -475 274 -93 54
-312 180 -485 280 -173 101 -333 193 -355 205 -44 24 -227 131 -372 216 -50
30 -96 54 -102 54 -6 0 -11 5 -11 10 0 6 -4 10 -10 10 -5 0 -47 22 -92 49 -46
27 -101 59 -123 71 -22 12 -102 58 -177 102 -164 95 -183 101 -222 77z"/>
<path d="M3874 6498 c-21 -10 -72 -96 -474 -793 -336 -583 -362 -628 -396
-685 -41 -69 -318 -549 -352 -610 -13 -25 -39 -70 -58 -100 -81 -137 -285
-491 -316 -552 -24 -45 -18 -85 18 -118 13 -13 24 -21 24 -17 0 4 10 3 23 -2
45 -18 80 24 202 244 16 28 45 78 66 112 21 34 50 83 64 110 14 26 30 55 35
63 11 17 240 412 278 480 26 47 115 199 151 260 11 19 24 42 28 50 6 13 104
183 133 230 7 13 109 191 146 255 99 175 513 890 532 917 43 66 34 130 -24
156 -30 14 -52 14 -80 0z"/>
<path d="M5495 5375 c-58 -29 -64 -94 -12 -144 17 -17 34 -31 38 -31 3 0 112
-61 240 -136 129 -75 263 -152 299 -171 36 -20 70 -39 75 -43 6 -4 55 -34 110
-65 55 -32 217 -125 360 -208 260 -150 296 -165 331 -136 8 6 14 8 14 3 1 -5
7 6 16 25 29 68 9 105 -86 158 -49 28 -67 38 -391 227 -120 69 -234 135 -255
147 -112 62 -584 335 -614 354 -48 32 -89 38 -125 20z"/>
<path d="M4700 5146 c-41 -18 -22 12 -330 -521 -9 -16 -68 -118 -130 -225 -62
-107 -126 -220 -143 -250 -16 -30 -38 -66 -47 -80 -9 -14 -45 -76 -81 -138
-35 -62 -74 -131 -87 -153 -13 -22 -24 -53 -24 -68 -1 -33 27 -78 54 -87 27
-8 83 3 98 21 10 12 61 99 209 356 120 209 199 345 212 368 9 15 88 151 174
302 87 151 169 292 183 313 27 44 32 93 13 129 -17 31 -68 48 -101 33z"/>
<path d="M5495 3788 c-25 -14 -49 -38 -39 -38 3 0 2 -6 -4 -13 -13 -15 -6 -70
9 -75 5 -2 9 -10 9 -17 0 -22 63 -34 107 -20 23 7 53 60 53 92 0 52 -89 99
-135 71z"/>
</g>
</svg>
